# xmcd CD database file
#
# Track frame offsets:
#	150
#	14578
#	29462
#	35931
#	56223
#	67931
#	89275
#	114305
#	135795
#	148557
#	156013
#	179976
#
# Disc length: 2829 seconds
#
# Revision: 0
# Processed by: cddbd v1.5PL3 Copyright (c) Steve Scherf et al.
# Submitted via: CDex 1.50
#
DISCID=a80b0b0c
DTITLE=Stan Kenton - Stan Kenton
DYEAR=2003
DGENRE=Jazz
TTITLE0=Stardust
TTITLE1=Love for sale
TTITLE2=How high the moon
TTITLE3=Lover man
TTITLE4=Willow weep for me
TTITLE5=Malaguena
TTITLE6=Intermission riff
TTITLE7=Young blood
TTITLE8=Walking shoes
TTITLE9=Taking a change on love
TTITLE10=Yesterdays
TTITLE11=Rhapsody in blue
EXTD=YEAR: 2003
EXTT0=
EXTT1=
EXTT2=
EXTT3=
EXTT4=
EXTT5=
EXTT6=
EXTT7=
EXTT8=
EXTT9=
EXTT10=
EXTT11=
PLAYORDER=
